<?xml version="1.0" encoding="UTF-8" standalone="no"?>
<!-- Created with Inkscape (http://www.inkscape.org/) -->

<svg
   version="1.1"
   id="svg2"
   width="468.49615"
   height="509.34546"
   viewBox="0 0 468.49615 509.34546"
   sodipodi:docname="favicon.svg"
   inkscape:version="1.2.1 (9c6d41e410, 2022-07-14, custom)"
   xmlns:inkscape="http://www.inkscape.org/namespaces/inkscape"
   xmlns:sodipodi="http://sodipodi.sourceforge.net/DTD/sodipodi-0.dtd"
   xmlns="http://www.w3.org/2000/svg"
   xmlns:svg="http://www.w3.org/2000/svg">
  <defs
     id="defs6" />
  <sodipodi:namedview
     id="namedview4"
     pagecolor="#505050"
     bordercolor="#ffffff"
     borderopacity="1"
     inkscape:showpageshadow="0"
     inkscape:pageopacity="0"
     inkscape:pagecheckerboard="1"
     inkscape:deskcolor="#505050"
     showgrid="false"
     inkscape:zoom="0.65186406"
     inkscape:cx="355.90242"
     inkscape:cy="182.5534"
     inkscape:window-width="1366"
     inkscape:window-height="705"
     inkscape:window-x="0"
     inkscape:window-y="0"
     inkscape:window-maximized="1"
     inkscape:current-layer="g8" />
  <g
     inkscape:groupmode="layer"
     inkscape:label="Image"
     id="g8"
     transform="translate(-122.51722,23.164714)">
    <path
       style="fill:#ffd700;fill-opacity:1"
       d="m 123.94138,481.15116 c 1.6414,-6.32777 1.61014,-13.34286 -0.0949,-21.28792 l -1.32926,-6.19417 5.74141,-9.63285 c 3.15777,-5.29806 6.15256,-10.044 6.65509,-10.54653 0.55158,-0.55158 4.50476,0.51621 9.97486,2.69428 l 9.06118,3.60797 -3.45578,13.63273 -3.45577,13.63274 -5.7908,2.76677 c -3.83384,1.83176 -7.95701,5.06307 -12.20077,9.56168 l -6.40997,6.7949 1.30467,-5.0296 z m 14.25275,-18.56597 c 5.71419,-3.05814 1.76329,-9.77293 -4.3663,-7.42079 -2.17054,0.83291 -2.05122,6.02021 0.16821,7.31291 2.18762,1.27417 2.02659,1.27003 4.19809,0.10788 z m 2.30191,21.88399 c -0.6875,-0.72147 -1.25,-1.8864 -1.25,-2.58872 0,-3.04212 4.61411,-4.10772 22.67459,-5.23657 41.98476,-2.62419 81.34445,-9.80682 119.32541,-21.77532 29.42067,-9.271 51.76296,-18.22302 92.5,-37.06255 36.87978,-17.05566 56.09712,-24.99696 82,-33.88536 32.76933,-11.24458 75.69415,-21.22511 111.5,-25.92506 16.95035,-2.22495 19.70983,-2.1728 22.30413,0.42148 3.8325,3.83246 0.9942,4.98991 -18.90066,7.70781 -64.83737,8.85763 -121.8774,27.16019 -203.90347,65.42694 -63.19641,29.48234 -112.12681,43.71318 -175.5,51.04213 -22.86192,2.64393 -49.09386,3.6132 -50.75,1.87522 z m 6.75,-54.58212 c -4.675,-1.92079 -8.86061,-3.83885 -9.30137,-4.26237 -0.82848,-0.79608 2.03627,-9.06728 3.14048,-9.06728 1.80089,0 19.44972,7.5891 19.80561,8.51652 0.64808,1.68888 -2.52029,8.49437 -3.90814,8.39448 -0.68012,-0.049 -5.06158,-1.66056 -9.73658,-3.58135 z m 7.3164,-15.20027 c -2.30098,-0.91479 -4.452,-1.93165 -4.78004,-2.25969 -0.59828,-0.59828 5.59496,-11.70785 24.17723,-43.36969 49.71162,-84.7023 113.43235,-167.70574 160.76326,-209.41227 37.92793,-33.42091 73.19026,-57.74135 154.52315,-106.574637 29.975,-17.997365 56.525,-34.035273 59,-35.639794 l 4.5,-2.917311 -3.5,3.100453 C 543.7061,22.52137 522.31623,38.821058 506.58986,50.119068 493.19077,59.745129 482.97781,66.563392 435.74604,97.415027 352.08139,152.06451 275.22063,230.13817 213.11687,323.55741 c -23.38601,35.17828 -45.44152,72.76171 -50.32162,85.75 -1.49823,3.9875 -3.02222,7.20334 -3.38663,7.14631 -0.36442,-0.057 -2.5452,-0.85215 -4.84618,-1.76693 z m 20.6836,-18.68206 c 0,-0.88877 11.49598,-20.66847 21.76443,-37.44732 37.20555,-60.79467 76.71625,-111.40548 123.73557,-158.49778 36.36733,-36.42378 73.10152,-65.90091 116.74643,-93.68247 38.43707,-24.466583 102.29172,-72.143122 129.11391,-96.4018064 14.0945,-12.747436 12.84904,-12.166318 16.08067,-7.503062 3.25582,4.698189 5.00392,11.3851934 3.64172,13.9305864 -0.5199,0.971368 -8.23657,6.44588 -17.14821,12.165582 -8.91165,5.719703 -15.75463,10.548913 -15.20663,10.73158 1.38127,0.460421 21.73827,-6.479202 27.48887,-9.370846 2.59421,-1.304482 4.95667,-2.371785 5.24997,-2.371785 0.2933,0 0.5333,3.812722 0.5333,8.472715 v 8.472715 l -9.75003,4.651982 c -17.0503,8.135147 -41.50906,16.402588 -48.52614,16.402588 -1.13146,0 -1.80429,0.252903 -1.49519,0.562006 1.36717,1.367168 32.10186,-3.960938 45.76692,-7.934062 4.67257,-1.358554 8.65492,-2.310764 8.84966,-2.116023 0.76973,0.769728 -2.10047,7.539628 -4.73107,11.159129 -7.66996,10.553238 -42.2422,22.416658 -72.65519,24.931528 -8.08813,0.66881 -8.61877,0.83274 -5.45899,1.68639 1.9711,0.53252 10.48926,0.68853 19.5,0.35714 15.57439,-0.57279 28.76981,-2.57481 40,-6.06883 7.73517,-2.40662 7.74893,-2.39054 4.85451,5.67272 -5.43031,15.127713 -12.01659,25.542383 -23.38452,36.977223 -9.56224,9.61852 -16.81533,13.03824 -45.96999,21.67415 l -6.5,1.92536 5,-0.49045 c 5.04251,-0.49463 25.86776,-3.81639 30.5,-4.86494 8.20816,-1.85801 -25.32195,13.14489 -34.81536,15.57798 -2.83195,0.7258 -4.96996,1.49869 -4.75112,1.71753 0.21883,0.21884 6.29375,-0.38125 13.49981,-1.33352 7.20607,-0.95227 13.4315,-1.39146 13.8343,-0.97599 1.06808,1.10167 -9.98904,10.87593 -19.40103,17.15008 -14.48309,9.65462 -36.51915,19.60144 -58.08812,26.2203 -33.27061,10.20974 -56.07784,13.84472 -81.10335,12.92615 -15.0518,-0.55249 -27.76035,0.84528 -37.67513,4.14374 l -6,1.99609 8.5,-0.69685 c 15.99888,-1.31163 34.74598,-0.627 45.65708,1.66735 8.14114,1.71189 13.59926,2.13389 27.5,2.12617 16.18313,-0.009 38.50015,-1.85004 47.05916,-3.88218 l 3.71623,-0.88234 -1.4366,3.43828 c -3.09458,7.40638 -12.9273,20.83879 -21.32472,29.13158 -12.90828,12.74743 -17.29183,15.08142 -52.91806,28.17587 -28.64105,10.52704 -36.74883,12.45975 -67.18047,16.01427 -9.58506,1.11957 -17.64756,2.25576 -17.91667,2.52487 -0.26911,0.2691 11.17322,0.4887 25.42738,0.48799 24.05527,-0.001 26.63489,-0.17623 35.91667,-2.43688 5.5,-1.33957 13.15,-3.60043 17,-5.02414 9.40907,-3.47942 7.03582,-1.66409 -15.5,11.85613 -35.6956,21.41535 -67.21759,36.33241 -87.96133,41.62568 -4.14627,1.05802 -12.93867,2.85322 -19.53867,3.98933 -20.66426,3.55711 -30.5,6.5052 -30.5,9.14185 0,0.7172 1.1297,0.85597 3.25,0.39924 13.84583,-2.98252 21.06728,-3.84649 33.75,-4.03782 15.96375,-0.24083 17.85301,-0.50811 29.5,-4.17339 7.63488,-2.40268 28.58836,-11.5345 31.27417,-13.62972 0.70079,-0.5467 1.49887,-0.76928 1.77352,-0.49464 0.62365,0.62366 -13.01367,11.16873 -21.04769,16.27515 -15.91273,10.11412 -29.69547,15.76168 -66,27.04387 -8.25,2.56381 -18.06225,6.19264 -21.805,8.06405 -5.78038,2.89026 -7.85071,3.40258 -13.75,3.40258 -3.81975,0 -6.945,-0.24871 -6.945,-0.55268 z m -31.01938,-2.48354 c -2.15698,-4.03035 -3.15574,-19.6214 -2.06931,-32.30272 1.50268,-17.53991 7.50389,-49.576 9.00642,-48.07869 0.32025,0.31914 1.10445,5.60616 1.74266,11.74894 1.32711,12.77334 2.92872,20.72408 4.64887,23.07791 0.94149,1.28833 1.19074,-1.35755 1.19074,-12.6399 0,-14.94218 1.65865,-24.64767 5.68566,-33.26932 1.02758,-2.2 1.60685,-3.11228 1.28726,-2.0273 -1.22312,4.15244 -1.77093,28.17239 -0.68658,30.10447 1.3949,2.4854 1.5699,1.91479 3.70396,-12.07717 6.16657,-40.43102 13.29669,-66.79893 21.90314,-81 8.31503,-13.72023 21.6468,-30.17901 39.2615,-48.47039 l 12.84506,-13.33852 0.64168,13.90445 c 0.35293,7.64745 1.15859,16.17777 1.79036,18.95625 1.16637,5.12963 4.73945,12.11006 5.70469,11.14481 0.29093,-0.29093 -0.0171,-4.86739 -0.68455,-10.16992 -3.48768,-27.70844 3.06022,-58.72724 15.98392,-75.71922 12.75956,-16.77618 35.03808,-38.992343 55.18968,-55.035203 9.09517,-7.240736 27.85447,-20.125338 28.44364,-19.536168 0.1548,0.1548 -1.22071,5.236245 -3.0567,11.292099 -3.38832,11.176109 -5.56502,24.747399 -4.69729,29.286649 0.32409,1.695373 1.37251,-1.16345 3.26728,-8.90921 4.5252,-18.498859 11.1727,-32.287258 19.04233,-39.498029 2.97567,-2.726545 13.66159,-8.941272 40.007,-23.267325 l 7.63204,-4.150134 -4.3167,12.384465 c -4.56078,13.084727 -7.44738,25.15668 -7.44738,31.145414 0,3.139083 1.00748,1.627821 7.80499,-11.707842 8.51097,-16.697199 15.6195,-28.565654 23.42795,-39.115531 5.60315,-7.5703244 8.41896,-9.3162544 27.88036,-17.2871024 26.60411,-10.8962976 49.09864,-17.2938216 73.34588,-20.8598306 5.47755,-0.805575 10.04937,-1.371315 10.15959,-1.257198 0.11022,0.114117 -4.05411,7.407485 -9.25407,16.2074846 -5.19996,8.8 -10.15396,17.3500004 -11.0089,19.0000004 -0.86008,1.659933 5.91169,-4.3703684 15.15993,-13.5000004 l 16.71435,-16.4999996 -6.95716,10.4999996 c -3.82644,5.775 -7.51227,11.546562 -8.19073,12.825694 -1.59428,3.005743 -1.95417,3.205116 19.41781,-10.757339 16.2863,-10.6399496 16.74811,-10.8694206 11,-5.4658966 -7.62488,7.1677896 -30.51642,26.263304 -39.85107,33.242702 -14.47505,10.822802 -29.73787,20.277749 -53.64893,33.234204 -46.60927,25.255714 -79.40929,46.456197 -126.5,81.764007 -24.88957,18.66177 -39.84203,32.7586 -61.68657,58.15663 -39.76368,46.23213 -102.75721,137.76695 -130.28192,189.31042 -5.52612,10.34836 -5.81611,10.68958 -9.08474,10.68958 -2.37296,0 -3.70026,-0.60515 -4.46615,-2.03622 z"
       id="path293" />
  </g>
</svg>
